<?xml version="1.0" standalone="no"?>
<!DOCTYPE svg PUBLIC "-//W3C//DTD SVG 20010904//EN"
 "http://www.w3.org/TR/2001/REC-SVG-20010904/DTD/svg10.dtd">
<svg version="1.0" xmlns="http://www.w3.org/2000/svg"
 width="360.000000pt" height="360.000000pt" viewBox="0 0 360.000000 360.000000"
 preserveAspectRatio="xMidYMid meet">
<metadata>
Created by potrace 1.16, written by Peter Selinger 2001-2019
</metadata>
<g transform="translate(0.000000,360.000000) scale(0.100000,-0.100000)"
fill="#000000" stroke="none">
<path d="M1070 2127 l0 -94 40 -12 c86 -25 160 -128 160 -221 0 -93 -74 -196
-160 -221 l-40 -12 0 -94 c0 -51 4 -93 8 -93 4 0 34 7 66 15 114 30 214 111
263 215 l28 59 533 0 532 1 0 -135 0 -135 75 0 75 0 0 115 0 115 45 0 45 0 0
-115 0 -115 75 0 75 0 0 135 0 135 45 0 45 0 0 100 0 100 -763 0 -763 0 -17
54 c-44 137 -156 245 -292 281 -33 8 -63 15 -67 15 -4 0 -8 -42 -8 -93z"/>
<path d="M912 2199 c-20 -6 -30 -14 -26 -21 4 -6 3 -8 -4 -5 -15 10 -43 -3
-35 -16 3 -5 1 -7 -5 -4 -12 8 -42 -2 -42 -14 0 -4 8 -6 18 -3 13 5 14 4 3 -4
-8 -6 -21 -8 -29 -4 -9 3 -13 1 -9 -5 4 -6 0 -10 -10 -9 -9 0 -18 -5 -20 -12
-3 -7 1 -10 10 -6 8 3 18 1 21 -4 3 -5 -6 -8 -20 -6 -32 3 -67 -34 -99 -102
-20 -41 -44 -120 -45 -144 0 -3 32 -5 70 -5 39 0 70 3 70 8 0 5 7 4 15 -3 18
-15 17 -17 39 44 26 67 68 112 129 134 l52 20 3 86 3 86 -28 -1 c-15 0 -43 -5
-61 -10z"/>
<path d="M620 1760 c1 -24 25 -103 45 -144 31 -67 68 -105 98 -102 17 2 23 -3
24 -17 2 -18 1 -18 -18 -2 -10 10 -19 13 -19 8 0 -16 28 -36 42 -31 7 3 22 1
33 -4 18 -8 18 -8 -2 -4 -13 2 -23 1 -23 -3 0 -13 112 -62 156 -68 l45 -6 -3
88 -3 87 -49 19 c-56 21 -99 58 -116 100 -7 16 -15 27 -19 25 -3 -2 -6 9 -7
25 -1 37 -9 45 -29 29 -8 -7 -15 -8 -15 -3 0 5 -31 8 -70 8 -38 0 -70 -2 -70
-5z"/>
</g>
</svg>
